<?xml version="1.0" encoding="UTF-8" standalone="no"?>
<!-- Created with Inkscape (http://www.inkscape.org/) -->

<svg
   width="146.21906mm"
   height="142.57419mm"
   viewBox="0 0 146.21906 142.57419"
   version="1.1"
   id="svg1"
   xmlns="http://www.w3.org/2000/svg"
   xmlns:svg="http://www.w3.org/2000/svg">
  <defs
     id="defs1" />
  <g
     id="layer1"
     transform="translate(-32.027808,-69.271025)">
    <rect
       style="fill:#180018;fill-opacity:1;stroke-width:0.264583"
       id="rect7"
       width="96.04351"
       height="51.189449"
       x="58.096149"
       y="127.66303"
       rx="10" />
    <rect
       style="fill:#f9f9f9;fill-opacity:1;stroke-width:0.264583"
       id="rect8"
       width="86.160416"
       height="41.813141"
       x="62.910995"
       y="131.97104"
       rx="5" />
    <rect
       style="fill:#b16dde;fill-opacity:1;stroke-width:0.264583"
       id="rect9"
       width="81.092148"
       height="36.238056"
       x="65.698532"
       y="135.01199"
       rx="2" />
    <path
       style="fill:#f9f9f9;fill-opacity:1;stroke-width:0.264583"
       id="path9"
       d="m 114.79608,200.44965 c 19.39167,34.65745 18.09475,36.83548 -21.615316,36.30043 -39.710064,-0.53505 -40.94783,-2.74723 -20.629433,-36.86963 20.318397,-34.1224 22.853082,-34.08825 42.244749,0.5692 z"
       transform="translate(11.468161,-15.768722)" />
    <path
       style="fill:#180018;fill-opacity:1;stroke-width:0.264583"
       id="path9-8"
       d="m 79.318262,208.55888 c 21.248318,37.97571 21.896778,36.8867 -21.615315,36.30042 -43.512092,-0.58627 -42.893209,0.51981 -20.629433,-36.86962 22.263775,-37.38944 20.996432,-37.40652 42.244748,0.5692 z"
       transform="translate(47.100533,-17.073991)" />
    <path
       style="fill:#f9f9f9;fill-opacity:1;stroke-width:0.264583"
       id="path9-8-7"
       d="m 78.051195,213.37373 c 24.342735,43.50615 28.233485,36.97208 -21.615315,36.30042 -49.8488039,-0.67165 -46.135506,5.96488 -20.629433,-36.86962 25.506072,-42.83451 17.902017,-42.93696 42.244748,0.5692 z"
       transform="translate(48.328983,-13.218191)" />
    <rect
       style="fill:#180018;fill-opacity:1;stroke-width:0.264583"
       id="rect10"
       width="20.415581"
       height="5.0682511"
       x="74.821404"
       y="173.78416"
       rx="2"
       ry="0" />
    <rect
       style="fill:#180018;fill-opacity:1;stroke-width:0.264583"
       id="rect10-5"
       width="23.743692"
       height="5.0887885"
       x="114.85294"
       y="173.78601"
       rx="2.8735497"
       ry="0.20158878" />
    <rect
       style="fill:#f9f9f9;fill-opacity:1;stroke-width:0.264583"
       id="rect11"
       width="146.21906"
       height="51.069157"
       x="35.068764"
       y="178.8624"
       rx="2.8735497"
       ry="0.20158876" />
    <ellipse
       style="fill:#180018;fill-opacity:1;stroke-width:0.264583"
       id="path16"
       ry="28.312025"
       rx="32.433395"
       cy="122.92435"
       cx="141.02254" />
    <ellipse
       style="fill:#180018;fill-opacity:1;stroke-width:0.220853"
       id="path16-2"
       ry="22.040375"
       rx="29.028786"
       cy="135.52278"
       cx="67.9627" />
    <ellipse
       style="fill:#f9f9f9;fill-opacity:1;stroke-width:0.0218479"
       id="path16-2-7"
       ry="2.3294711"
       rx="2.6878512"
       cy="130.21863"
       cx="56.925217" />
    <ellipse
       style="fill:#f9f9f9;fill-opacity:1;stroke-width:0.0218479"
       id="path16-2-7-9"
       ry="2.3294711"
       rx="2.6878512"
       cy="130.48"
       cx="73.702461" />
    <ellipse
       style="fill:#f9f9f9;fill-opacity:1;stroke-width:0.0218479"
       id="path16-2-7-9-5"
       ry="2.3294711"
       rx="2.6878512"
       cy="115.76688"
       cx="136.62337" />
    <rect
       style="fill:#180018;fill-opacity:1;stroke-width:0.24836"
       id="rect17"
       width="21.07514"
       height="11.085041"
       x="134.77318"
       y="-90.264763"
       rx="1.4813198"
       ry="5.5425205"
       transform="rotate(90)" />
    <rect
       style="fill:#180018;fill-opacity:1;stroke-width:0.24836"
       id="rect17-1"
       width="21.07514"
       height="11.085041"
       x="129.25928"
       y="-131.73392"
       rx="1.4813198"
       ry="5.5425205"
       transform="rotate(90)" />
    <ellipse
       style="fill:#f9f9f9;fill-opacity:1;stroke-width:0.0218479"
       id="path16-2-7-9-5-1"
       ry="2.3294711"
       rx="2.6878512"
       cy="116.10846"
       cx="153.62938" />
  </g>
</svg>
